<svg width="60" height="60" viewBox="0 0 60 60" fill="none" xmlns="http://www.w3.org/2000/svg">
<path fill-rule="evenodd" clip-rule="evenodd" d="M30 5C16.1875 5 5.00001 16.1875 5.00001 30C4.99566 35.2486 6.64494 40.3651 9.71366 44.6231C12.7824 48.881 17.1145 52.064 22.095 53.72C23.345 53.9375 23.8125 53.1875 23.8125 52.53C23.8125 51.9375 23.78 49.97 23.78 47.875C17.5 49.0325 15.875 46.345 15.375 44.9375C15.0925 44.2175 13.875 42 12.8125 41.405C11.9375 40.9375 10.6875 39.78 12.78 39.75C14.75 39.7175 16.155 41.5625 16.625 42.3125C18.875 46.0925 22.47 45.03 23.905 44.375C24.125 42.75 24.78 41.6575 25.5 41.0325C19.9375 40.4075 14.125 38.25 14.125 28.6875C14.125 25.9675 15.0925 23.72 16.6875 21.97C16.4375 21.345 15.5625 18.7825 16.9375 15.345C16.9375 15.345 19.03 14.6875 23.8125 17.905C25.8479 17.3416 27.9506 17.0582 30.0625 17.0625C32.1875 17.0625 34.3125 17.3425 36.3125 17.905C41.0925 14.655 43.1875 15.345 43.1875 15.345C44.5625 18.7825 43.6875 21.345 43.4375 21.97C45.03 23.72 46 25.9375 46 28.6875C46 38.2825 40.1575 40.4075 34.595 41.0325C35.5 41.8125 36.2825 43.3125 36.2825 45.6575C36.2825 49 36.25 51.6875 36.25 52.5325C36.25 53.1875 36.72 53.9675 37.97 53.7175C42.9318 52.0407 47.2431 48.8508 50.2979 44.5965C53.3526 40.3422 54.9971 35.2374 55 30C55 16.1875 43.8125 5 30 5Z" fill="white"/>
</svg>
